<svg xmlns="http://www.w3.org/2000/svg" viewBox="0 0 914.91 125.36"><defs><style>.cls-1{fill:#565656;}.cls-2{fill:#727373;}.cls-3{fill:#74c485;}.cls-4{fill:#478c57;}</style></defs><title>seed conceotAsset 3</title><g id="Layer_2" data-name="Layer 2"><g id="Layer_1-2" data-name="Layer 1"><path class="cls-1" d="M95.79,125.36,82.68,112.42a39.86,39.86,0,0,1-24.2,7.9H40.84a41.94,41.94,0,0,1-21.51-5.38A36.4,36.4,0,0,1,5,99.82Q0,90.07,0,77.13V43.19Q0,30.25,5.21,20.5A37.23,37.23,0,0,1,19.83,5.38,42.51,42.51,0,0,1,41.34,0H59.15a42.43,42.43,0,0,1,21.6,5.38A37,37,0,0,1,95.2,20.5q5.13,9.75,5.12,22.69V76.46a43.77,43.77,0,0,1-7.73,25.38l13.11,12.94ZM71.92,101.84,55.29,85.54,65.37,75l16,15.8a32.93,32.93,0,0,0,3-14.29V43.52q0-13.26-7-21.25T59,14.28H41.68q-11.43,0-18.57,8.07T16,43.52V76.8q0,13.28,6.89,21.25T41,106H58.14A24.05,24.05,0,0,0,71.92,101.84Z"/><path class="cls-1" d="M127.72,113.35q-5.89-5.64-5.89-18.24V1.34h15.63V94.61c0,3.81.78,6.55,2.36,8.23s4.14,2.53,7.72,2.53h6.73V119h-7.4Q133.6,119,127.72,113.35Z"/><path class="cls-1" d="M174,111.41q-9-8.89-9-23.35V66.21q0-14.62,9.08-23.53t24-8.9h14.11q15,0,24,8.9t9.08,23.53V88.06q0,14.44-9.16,23.35t-24.12,8.91H197.79Q183,120.32,174,111.41Zm37.9-4.87q8.06,0,12.94-5.21t4.87-14V66.71q0-8.73-4.79-13.94t-12.69-5.21H198.13q-7.9,0-12.69,5.21t-4.79,13.94V87.38q0,8.75,4.7,14T198,106.54Z"/><path class="cls-1" d="M286.94,116.71a16.57,16.57,0,0,1-4.62-7.14L253.41,35.12h16.47l23.86,66.21h.34l23.86-66.21h16.47L301.47,119h-7.73A10.41,10.41,0,0,1,286.94,116.71Z"/><path class="cls-1" d="M349.7,113.85q-7.56-6.46-7.56-17.22V91.08A21,21,0,0,1,350,74q7.9-6.47,20.67-6.47H381.3a42,42,0,0,1,10.75,1.52,32.54,32.54,0,0,1,9.75,4.2V61a13.36,13.36,0,0,0-3.87-10,13.8,13.8,0,0,0-10.08-3.78H374.07q-6.39,0-10.25,3A9.53,9.53,0,0,0,360,58.14H344.49a21.74,21.74,0,0,1,8.16-17.64q8.14-6.72,21.42-6.72h13.78q13.27,0,21.34,7.48T417.26,61v58H402.64V107.72a29,29,0,0,1-10.08,9.16A25.84,25.84,0,0,1,380,120.32H369.87Q357.27,120.32,349.7,113.85Zm31.09-6.47a21.31,21.31,0,0,0,13.11-4.28,21.93,21.93,0,0,0,7.9-11.51v-5A23,23,0,0,0,393.06,82a39.24,39.24,0,0,0-11.43-1.68H370.88a14.62,14.62,0,0,0-9.58,3,9.89,9.89,0,0,0-3.7,8.07v5a9.74,9.74,0,0,0,3.62,8c2.4,2,5.63,2.94,9.66,2.94Z"/><path class="cls-2" d="M447.25,111.41q-8.82-8.89-8.82-24.19h9.08q0,11.43,6.38,18.06t17.31,6.64H490q10.59,0,17.06-4.87a15.27,15.27,0,0,0,6.47-12.78V82.85a14.64,14.64,0,0,0-4.71-10.93q-4.69-4.53-13.11-5.88l-30.08-5q-12.09-2-18.9-8.74a22.64,22.64,0,0,1-6.81-16.8V25.71a22.8,22.8,0,0,1,8.74-18.65Q457.42,0,471.7,0h19q13.62,0,21.93,8.23t8.32,21.68h-9.07q0-9.73-5.8-15.71t-15.38-6h-19q-10.24,0-16.38,4.79a15.32,15.32,0,0,0-6.13,12.69v9.75a15.31,15.31,0,0,0,4.53,11.26q4.54,4.53,12.77,5.88l29.92,5.21q12.43,2.19,19.41,8.74a21.48,21.48,0,0,1,7,16.3V94.27a23,23,0,0,1-8.91,18.91q-8.91,7.14-23.69,7.14H471Q456.08,120.32,447.25,111.41Z"/><path class="cls-2" d="M550.77,112.26q-8.16-8.07-8.15-21.35v-26q0-14,8.15-22.52t21.43-8.57H586q12.76,0,20.58,8.32t7.82,22.09V78.31H551.69v12.6q0,9.59,5.63,15.46t14.88,5.89H585q9.07,0,14.7-5.3T605.3,93.1H614q0,12.27-8,19.74T585,120.32H572.2Q558.91,120.32,550.77,112.26Zm54.7-41.68V64.19q0-10.08-5.38-16.21A17.87,17.87,0,0,0,586,41.84H572.2q-9.26,0-14.88,6.39t-5.63,16.64v5.71Z"/><path class="cls-2" d="M642.35,112.26q-8.15-8.07-8.14-21.35v-26q0-14,8.14-22.52t21.43-8.57h13.78q12.77,0,20.59,8.32T706,64.19V78.31H643.28v12.6q0,9.59,5.63,15.46t14.87,5.89h12.77q9.08,0,14.71-5.3t5.63-13.86h8.74q0,12.27-8,19.74t-21.09,7.48H663.78Q650.5,120.32,642.35,112.26Zm54.7-41.68V64.19q0-10.08-5.37-16.21a17.88,17.88,0,0,0-14.12-6.14H663.78q-9.24,0-14.87,6.39t-5.63,16.64v5.71Z"/><path class="cls-2" d="M733.52,111.67Q725.8,103,725.79,88.9V66.38q0-14.62,8.15-23.61t21.43-9h12.77a23.49,23.49,0,0,1,11.51,3.11,24.72,24.72,0,0,1,9,8.31V1.34h8.91V119h-8.74V104.86a33.75,33.75,0,0,1-10.34,11.34,22.67,22.67,0,0,1-12.85,4.12H753.69Q741.24,120.32,733.52,111.67Zm31.93.59q7.89,0,14.62-7a32.3,32.3,0,0,0,8.57-16.89V61.17a25.33,25.33,0,0,0-7.39-14A18.81,18.81,0,0,0,768,41.84H755.54q-9.42,0-15,6.73t-5.64,17.81V88.9q0,10.41,5.3,16.89a16.89,16.89,0,0,0,13.7,6.47Z"/><path class="cls-3" d="M914.82,28.25l-74,74a43.32,43.32,0,0,1,30.69-74Z"/><path class="cls-4" d="M914.91,28.25V71.61a43.32,43.32,0,0,1-74,30.6l74-74Z"/></g></g></svg>